PathFileType	4	(X/Y/Z)	/Users/itak/Documents/Research/Walk-IL/dataset/trc/00302_00010.trc
DataRate	CameraRate	NumFrames	NumMarkers	Units	OrigDataRate	OrigDataStartFrame	OrigNumFrames
100.000000	100.000000	4	55	mm	100.000000	98	395
Frame#	Time	RPSI			LPSI			L3			STRN			T10			C7			CLAV			RBAK			LBAK			LSHO			LUPA			LAEL			LAOL			LWPS			LFRA			LIFD			LHPS			LHTS			RSHO			RUPA			RAEL			RAOL			RWTS			RWPS			RFRA			RIFD			RHPS			RBHD			LFHD			RFHD			LBHD			LHIP			RHIP			RASI			LASI			LKNE			LTHI			LANK			LTIP			LTOE			LMT1			LMT5			LHEE			RKNE			RTHI			RTIP			RTOE			RMT1			RMT5			RHEE			LWTS			RHTS			RANK			*53			*54			
		X1	Y1	Z1	X2	Y2	Z2	X3	Y3	Z3	X4	Y4	Z4	X5	Y5	Z5	X6	Y6	Z6	X7	Y7	Z7	X8	Y8	Z8	X9	Y9	Z9	X10	Y10	Z10	X11	Y11	Z11	X12	Y12	Z12	X13	Y13	Z13	X14	Y14	Z14	X15	Y15	Z15	X16	Y16	Z16	X17	Y17	Z17	X18	Y18	Z18	X19	Y19	Z19	X20	Y20	Z20	X21	Y21	Z21	X22	Y22	Z22	X23	Y23	Z23	X24	Y24	Z24	X25	Y25	Z25	X26	Y26	Z26	X27	Y27	Z27	X28	Y28	Z28	X29	Y29	Z29	X30	Y30	Z30	X31	Y31	Z31	X32	Y32	Z32	X33	Y33	Z33	X34	Y34	Z34	X35	Y35	Z35	X36	Y36	Z36	X37	Y37	Z37	X38	Y38	Z38	X39	Y39	Z39	X40	Y40	Z40	X41	Y41	Z41	X42	Y42	Z42	X43	Y43	Z43	X44	Y44	Z44	X45	Y45	Z45	X46	Y46	Z46	X47	Y47	Z47	X48	Y48	Z48	X49	Y49	Z49	X50	Y50	Z50	X51	Y51	Z51	X52	Y52	Z52	X53	Y53	Z53	X54	Y54	Z54	X55	Y55	Z55	

99	0.98	-262.86865234375	998.1741333007812	754.0562744140625	-375.8815612792969	970.7542114257812	622.8787841796875	-317.544189453125	1060.133178710938	667.3732299804688	-124.3442993164062	1231.441528320312	498.6705322265625	-332.8868408203125	1178.253173828125	667.7525634765625	-300.8538513183594	1421.549560546875	619.3419189453125	-175.447021484375	1331.812377929688	533.6871948242188	-298.6737670898438	1285.845581054688	716.7719116210938	-377.5102233886719	1384.468505859375	544.3780517578125	-333.4477233886719	1387.257568359375	448.3546752929688	-401.349365234375	1270.969116210938	403.6588134765625	-409.31640625	1067.400756835938	382.4111938476562	-425.4291381835938	1053.028564453125	466.4309387207031	-397.27685546875	833.5016479492188	343.92578125	-409.1454467773438	963.5833740234375	366.6228637695312	-361.9110412597656	654.37451171875	377.52294921875	-405.2024230957031	745.6904296875	344.4706726074219	-339.3989868164062	737.3528442382812	350.3006896972656	-150.7224578857422	1395.260986328125	706.4625854492188	-117.0556335449219	1339.612426757812	766.4718017578125	-77.42002105712891	1078.278076171875	830.6344604492188	-158.4434509277344	1060.796508789062	776.7730102539062	-0.4346314966678619	851.9892578125	754.5726928710938	-4.517210483551025	854.4465942382812	839.805419921875	-47.08987808227539	1012.712341308594	832.556396484375	25.09757423400879	668.37255859375	770.0620727539062	26.32904243469238	744.9808959960938	835.6944580078125	-224.7657012939453	1573.511352539062	670.0840454101562	-222.5664215087891	1623.469970703125	462.5784606933594	-149.5492248535156	1629.57177734375	520.567626953125	-338.0711059570312	1553.9775390625	577.0968017578125	-382.5319519042969	916.03076171875	508.2352294921875	-114.381965637207	962.0675048828125	765.6611328125	-74.43523406982422	961.9053955078125	634.7648315429688	-248.9470062255859	935.8792114257812	453.3494567871094	-232.9795684814453	472.1309509277344	426.1852722167969	-276.2427978515625	605.3270874023438	440.0654907226562	-484.7890625	217.1527404785156	674.09814453125	-360.9618530273438	334.5814514160156	541.8651733398438	-372.4430236816406	40.89617156982422	686.216796875	-386.7815246582031	101.0629653930664	736.9298095703125	-450.8621520996094	104.6805953979492	644.085693359375	-469.5033264160156	261.31787109375	733.9949951171875	-54.4538688659668	492.6231384277344	682.866943359375	-46.68598556518555	755.382568359375	714.2626953125	-49.75573348999023	366.7353515625	668.1277465820312	-30.95804405212402	49.52899551391602	532.3500366210938	-95.87265777587891	47.58638381958008	554.4947509765625	-24.57220840454102	29.21311950683594	647.7688598632812	-173.0843505859375	40.27222061157227	731.4400024414062	-334.2462463378906	837.9475708007812	377.4973449707031	46.1137580871582	741.539306640625	768.5299682617188	-101.8183898925781	38.47827911376953	720.4783325195312	nan	nan	nan	nan	nan	nan	
100	0.99	-255.7445373535156	998.7680053710938	750.4317016601562	-369.6993408203125	971.4000244140625	620.1009521484375	-310.3153076171875	1061.1484375	664.515869140625	-119.345329284668	1231.778076171875	492.9262084960938	-325.2794494628906	1179.626220703125	665.721923828125	-292.9396667480469	1422.608276367188	616.1939086914062	-169.6585998535156	1332.220092773438	528.5989990234375	-289.7194519042969	1287.28173828125	713.9569091796875	-371.2424926757812	1385.660278320312	542.8629760742188	-329.1247253417969	1388.0390625	445.9471740722656	-399.3912353515625	1272.322387695312	403.4538879394531	-410.7728271484375	1068.868530273438	383.2203369140625	-423.7150268554688	1054.786743164062	467.8288269042969	-400.7014465332031	834.9246215820312	344.0504455566406	-411.7763366699219	964.94775390625	367.4239807128906	-361.6747436523438	655.996337890625	374.1453247070312	-407.7730102539062	747.056640625	344.4284362792969	-341.8185424804688	739.5426635742188	346.7925415039062	-141.521728515625	1395.989501953125	700.6212768554688	-106.6109085083008	1340.246826171875	759.9627685546875	-62.27261734008789	1079.027954101562	822.1663208007812	-146.7708282470703	1061.5166015625	772.288330078125	14.09910202026367	853.4801025390625	743.0962524414062	12.9429407119751	855.9382934570312	828.4279174804688	-31.34249496459961	1013.804260253906	822.7786865234375	41.59485244750977	670.0789184570312	757.7706298828125	44.59504699707031	746.7237548828125	823.2681884765625	-215.5672302246094	1573.907104492188	665.7537841796875	-216.6727752685547	1624.303466796875	458.3641967773438	-142.6607055664062	1630.053344726562	515.0952758789062	-330.4605407714844	1554.955688476562	574.690185546875	-377.146728515625	917.2357788085938	505.1693725585938	-107.1775588989258	962.4912719726562	761.0443725585938	-67.78427886962891	962.6632690429688	629.99169921875	-243.7175445556641	937.2681274414062	449.986328125	-219.1125946044922	475.6560668945312	416.7122192382812	-265.3387451171875	608.1814575195312	432.5611877441406	-465.3261108398438	213.6363525390625	665.4763793945312	-344.1893920898438	334.6361389160156	532.2757568359375	-345.8741455078125	42.06869506835938	670.5396728515625	-362.1858825683594	99.45533752441406	723.522216796875	-427.1226196289062	104.1901321411133	631.4889526367188	-451.1840515136719	256.5405883789062	726.361572265625	-51.72493743896484	492.0835876464844	681.0477905273438	-41.04257965087891	755.1598510742188	709.72021484375	-48.1810188293457	366.1684265136719	666.9759521484375	-31.06728363037109	48.75266265869141	531.9765625	-95.99464416503906	47.03278732299805	554.1436157226562	-24.7972469329834	29.25223159790039	647.5366821289062	-173.1839447021484	40.36223220825195	731.2430419921875	-336.3180541992188	839.7344970703125	374.7353515625	62.09824752807617	743.4246826171875	755.4358520507812	-101.9350814819336	38.80564117431641	720.2313232421875	nan	nan	nan	nan	nan	nan	
101	1	-248.7081909179688	999.2744750976562	746.7088623046875	-363.5849914550781	971.907958984375	617.2366943359375	-303.1143798828125	1062.078735351562	661.576904296875	-114.4555282592773	1232.197143554688	487.2166748046875	-317.6904296875	1180.86962890625	663.6134643554688	-285.2272033691406	1423.551879882812	613.0380249023438	-164.029296875	1332.7158203125	523.5243530273438	-280.8671875	1288.603393554688	711.0438232421875	-365.0720825195312	1386.756469726562	541.3623657226562	-324.9888610839844	1388.821044921875	443.6125793457031	-397.4176025390625	1273.695068359375	403.3057861328125	-412.0551147460938	1070.39990234375	384.2707214355469	-421.803955078125	1056.570922851562	469.3508911132812	-403.9231262207031	836.4547729492188	344.3766479492188	-414.2047424316406	966.3964233398438	368.4660034179688	-361.2146606445312	657.7296142578125	370.5508728027344	-410.0638427734375	748.5150756835938	344.4756469726562	-344.1163330078125	741.8839721679688	343.2798156738281	-132.5552673339844	1396.720825195312	694.7327880859375	-96.41085815429688	1340.901977539062	753.34716796875	-47.49321746826172	1079.86767578125	813.3098754882812	-135.1410675048828	1062.200439453125	767.2562866210938	28.45013809204102	855.0501708984375	731.403564453125	30.10162544250488	857.5651245117188	816.7316284179688	-15.89345264434814	1015.00830078125	812.6514892578125	57.62288665771484	671.8583984375	745.3175659179688	62.43106079101562	748.5691528320312	810.5886840820312	-206.4987182617188	1574.261962890625	661.2950439453125	-210.8313140869141	1625.060791015625	454.0672912597656	-135.8585510253906	1630.407104492188	509.5400085449219	-322.9669799804688	1555.980224609375	572.152099609375	-371.7905883789062	918.3692016601562	501.9924926757812	-100.1064758300781	962.9100341796875	756.4461059570312	-61.20303726196289	963.3892211914062	625.1881713867188	-238.4975128173828	938.626953125	446.5489501953125	-205.5308990478516	479.2223510742188	407.3602600097656	-254.5339813232422	611.1573486328125	424.9381103515625	-445.8177490234375	208.9710845947266	656.0418701171875	-327.4153442382812	333.79248046875	522.3532104492188	-318.5448913574219	43.03631973266602	654.251953125	-337.0890197753906	97.27433013916016	709.4403076171875	-402.7163696289062	102.811897277832	618.171142578125	-432.8639831542969	250.357177734375	717.9134521484375	-49.07759857177734	491.5449523925781	679.3939208984375	-35.52763748168945	754.861083984375	705.2396240234375	-46.66104888916016	365.6251831054688	665.943603515625	-31.15016555786133	48.03603363037109	531.642333984375	-96.09712219238281	46.53303909301758	553.7957153320312	-25.01326560974121	29.30585289001465	647.3031616210938	-173.27001953125	40.42573928833008	731.04736328125	-338.2344665527344	841.6375732421875	372.0182800292969	77.74080657958984	745.34912109375	742.1880493164062	-102.0310134887695	39.14970016479492	720.0000610351562	nan	nan	nan	nan	nan	nan	
102	1.01	-241.7588348388672	999.7002563476562	742.8919067382812	-357.5255432128906	972.2661743164062	614.290283203125	-295.9287414550781	1062.860107421875	658.5731811523438	-109.6769409179688	1232.68408203125	481.5325012207031	-310.0902099609375	1181.925048828125	661.4024658203125	-277.7367858886719	1424.358154296875	609.8760375976562	-158.5575866699219	1333.277221679688	518.4616088867188	-272.086181640625	1289.770751953125	708.0299682617188	-358.9849243164062	1387.731689453125	539.8707275390625	-321.0138549804688	1389.59765625	441.3501281738281	-395.4014282226562	1275.064453125	403.1876525878906	-413.0753784179688	1071.977783203125	385.5046081542969	-419.6872863769531	1058.353637695312	470.9322814941406	-406.8781433105469	838.0657958984375	344.8499755859375	-416.3389587402344	967.9099731445312	369.6865844726562	-360.6574096679688	659.5492553710938	366.83984375	-412.0762634277344	750.0408935546875	344.5802612304688	-346.2920532226562	744.3116455078125	339.83544921875	-123.8056716918945	1397.436279296875	688.8001708984375	-86.44068908691406	1341.561645507812	746.6270141601562	-33.10353469848633	1080.776489257812	804.106201171875	-123.1704254150391	1062.71484375	761.3401489257812	42.61920547485352	856.704833984375	719.496337890625	46.9200439453125	859.2988891601562	804.7369995117188	-0.7816632986068726	1016.299621582031	802.2221069335938	73.20620727539062	673.71484375	732.6781616210938	79.83418273925781	750.4992065429688	797.6571655273438	-197.5699615478516	1574.56689453125	656.7150268554688	-205.0545654296875	1625.727294921875	449.6825256347656	-129.1540985107422	1630.623657226562	503.9090270996094	-315.6026306152344	1557.03173828125	569.4750366210938	-366.4454956054688	919.3871459960938	498.7310791015625	-93.13527679443359	963.3004760742188	751.8489990234375	-54.70177841186523	964.0489501953125	620.3557739257812	-233.2828826904297	939.9180297851562	443.0306701660156	-192.2975921630859	482.7880859375	398.1380310058594	-243.9008178710938	614.1947021484375	417.2414855957031	-426.2173156738281	203.2322692871094	645.7501220703125	-310.6460876464844	332.1119384765625	512.104736328125	-290.7088012695312	43.82440567016602	637.3631591796875	-311.5950012207031	94.60906219482422	694.6539306640625	-377.8214416503906	100.6289138793945	604.0956420898438	-414.4577026367188	242.8743286132812	708.6156616210938	-46.50027847290039	491.0119323730469	677.9024047851562	-30.13583564758301	754.4981079101562	700.8495483398438	-45.18137359619141	365.1034851074219	665.0303955078125	-31.2087287902832	47.39689636230469	531.3480834960938	-96.16989898681641	46.09827423095703	553.4666137695312	-25.21294975280762	29.36628341674805	647.0804443359375	-173.3484802246094	40.47596740722656	730.85986328125	-339.9646911621094	843.6107788085938	369.3689270019531	93.05487060546875	747.3201293945312	728.7850952148438	-102.1187362670898	39.49704360961914	719.7901000976562	nan	nan	nan	nan	nan	nan	
